<svg xmlns="http://www.w3.org/2000/svg" id="Outline" viewBox="0 0 24 24" width="300" height="300" version="1.1" xmlns:xlink="http://www.w3.org/1999/xlink" xmlns:svgjs="http://svgjs.dev/svgjs"><g width="100%" height="100%" transform="matrix(1,0,0,1,0,0)"><path d="M18,12h0a2,2,0,0,0-.59-1.4l-4.29-4.3a1,1,0,0,0-1.41,0,1,1,0,0,0,0,1.42L15,11H5a1,1,0,0,0,0,2H15l-3.29,3.29a1,1,0,0,0,1.41,1.42l4.29-4.3A2,2,0,0,0,18,12Z" fill="#ffffff" fill-opacity="1" data-original-color="#000000ff" stroke="none" stroke-opacity="1"/></g></svg>