<svg xmlns="http://www.w3.org/2000/svg" id="Layer_1" data-name="Layer 1" viewBox="0 0 24 24" width="300" height="300" version="1.1" xmlns:xlink="http://www.w3.org/1999/xlink" xmlns:svgjs="http://svgjs.dev/svgjs"><g width="100%" height="100%" transform="matrix(1,0,0,1,0,0)"><path d="M23,16.782c.64-1.466,1-3.082,1-4.782s-.36-3.315-1-4.782v-.218h-.105C20.994,2.876,16.831,0,12,0S3.006,2.876,1.105,7h-.105v.218c-.64,1.466-1,3.082-1,4.782s.36,3.315,1,4.782v.218h.105c1.901,4.124,6.063,7,10.895,7s8.994-2.876,10.895-7h.105v-.218Zm-.764-.782h-4.905c.404-1.248,.669-2.589,.669-4s-.265-2.752-.669-4h4.905c.487,1.242,.764,2.588,.764,4s-.277,2.758-.764,4Zm-14.505,0c-.439-1.247-.731-2.593-.731-4s.292-2.754,.73-4h8.539c.439,1.247,.731,2.593,.731,4s-.292,2.753-.731,4H7.731Zm8.146,1c-1.229,2.838-3.116,4.99-3.878,5.788-.762-.798-2.649-2.95-3.878-5.788h7.755ZM8.121,7c1.229-2.841,3.117-4.992,3.879-5.789,.762,.798,2.649,2.95,3.878,5.789h-7.757Zm13.665,0h-4.814c-1.067-2.669-2.712-4.781-3.731-5.925,3.734,.421,6.901,2.719,8.546,5.925ZM10.757,1.075c-1.025,1.15-2.668,3.264-3.73,5.925H2.214C3.859,3.795,7.024,1.498,10.757,1.075ZM1.764,8H6.668c-.403,1.247-.668,2.589-.668,4s.265,2.752,.669,4H1.764c-.487-1.242-.764-2.588-.764-4s.277-2.758,.764-4Zm.45,9H7.029c1.067,2.669,2.712,4.781,3.731,5.925-3.734-.421-6.901-2.719-8.546-5.925Zm11.026,5.925c1.019-1.144,2.664-3.257,3.731-5.925h4.814c-1.645,3.206-4.812,5.504-8.546,5.925Z" fill="#ffffff" fill-opacity="1" data-original-color="#000000ff" stroke="none" stroke-opacity="1"/></g></svg>